<svg xmlns="http://www.w3.org/2000/svg" viewBox="0 0 96 96" role="img" aria-labelledby="title desc">
  <title id="title">Complaint Box</title>
  <desc id="desc">A secure complaint box represented by a speech bubble and check mark.</desc>
  <defs>
    <linearGradient id="surface" x1="14" y1="10" x2="82" y2="88" gradientUnits="userSpaceOnUse">
      <stop stop-color="#315FD6"/>
      <stop offset="1" stop-color="#18346F"/>
    </linearGradient>
    <linearGradient id="signal" x1="57" y1="28" x2="76" y2="72" gradientUnits="userSpaceOnUse">
      <stop stop-color="#F7C95C"/>
      <stop offset="1" stop-color="#E58A36"/>
    </linearGradient>
  </defs>
  <rect x="6" y="6" width="84" height="84" rx="25" fill="url(#surface)"/>
  <path d="M29 29.5c0-4.14 3.36-7.5 7.5-7.5h23c4.14 0 7.5 3.36 7.5 7.5v27c0 4.14-3.36 7.5-7.5 7.5H46.4L35.2 73v-9H36.5c-4.14 0-7.5-3.36-7.5-7.5v-27Z" fill="#fff"/>
  <path d="M37 36.5h22M37 44.5h15" stroke="#315FD6" stroke-width="4" stroke-linecap="round"/>
  <circle cx="67" cy="63" r="15" fill="url(#signal)"/>
  <path d="m60.7 63 4.15 4.15 8.45-9" fill="none" stroke="#fff" stroke-width="4" stroke-linecap="round" stroke-linejoin="round"/>
</svg>
